<svg width="24" height="21" viewBox="0 0 24 21" fill="none" xmlns="http://www.w3.org/2000/svg">
<path d="M8.12999 19.7038C8.12999 19.9638 8.04998 20.2138 7.90998 20.4238C7.76998 20.6338 7.56998 20.8038 7.32998 20.9038C7.08998 21.0038 6.82998 21.0238 6.57998 20.9738C6.32998 20.9238 6.09999 20.8038 5.91999 20.6238C5.73999 20.4438 5.61999 20.2138 5.56999 19.9638C5.51999 19.7138 5.54998 19.4538 5.63998 19.2138C5.73998 18.9738 5.89998 18.7738 6.11998 18.6338C6.32998 18.4938 6.57999 18.4138 6.83999 18.4138C7.17999 18.4138 7.50998 18.5538 7.74998 18.7938C7.98998 19.0238 8.12999 19.3538 8.12999 19.7038Z" fill="#FDC994"/>
<path d="M19.61 19.7038C19.61 19.9638 19.53 20.2138 19.39 20.4238C19.25 20.6338 19.05 20.8038 18.81 20.9038C18.57 21.0038 18.31 21.0238 18.06 20.9738C17.81 20.9238 17.58 20.8038 17.4 20.6238C17.22 20.4438 17.1 20.2138 17.05 19.9638C17 19.7138 17.03 19.4538 17.12 19.2138C17.22 18.9738 17.38 18.7738 17.6 18.6338C17.81 18.4938 18.06 18.4138 18.32 18.4138C18.66 18.4138 18.99 18.5538 19.23 18.7938C19.47 19.0238 19.61 19.3538 19.61 19.7038Z" fill="#FDC994"/>
<path d="M22.59 4.53375C22.57 4.47375 22.54 4.42375 22.49 4.38375C22.44 4.34375 22.38 4.32375 22.32 4.31375L5.4 2.68375C5.32 2.67375 5.25 2.65375 5.18 2.60375C5.11 2.56375 5.06 2.50375 5.01 2.43375C4.84 2.09375 4.63 1.77375 4.38 1.48375C3.98 0.99375 3.23 1.01375 1.85 1.00375C1.75 0.99375 1.64 1.00375 1.54 1.03375C1.44 1.06375 1.35 1.11375 1.27 1.18375C1.19 1.25375 1.12 1.33375 1.07 1.42375C1.02 1.52375 1 1.62375 1 1.72375C1 1.82375 1.02 1.92375 1.07 2.02375C1.11 2.11375 1.17 2.20375 1.25 2.27375C1.32 2.34375 1.41 2.39375 1.51 2.42375C1.61 2.45375 1.71 2.46375 1.81 2.45375C2.26 2.44375 2.71 2.47375 3.16 2.55375C3.4 2.62375 3.6 3.02375 3.67 3.37375V3.38375V3.39375C3.68 3.45375 3.77 3.92375 3.77 3.92375L5.85 14.8537C5.94 15.5237 6.2 16.1538 6.6 16.6938C6.8 16.9638 7.06 17.1737 7.35 17.3237C7.65 17.4737 7.98 17.5438 8.31 17.5338H20.6C20.79 17.5338 20.97 17.4637 21.11 17.3337C21.25 17.2037 21.33 17.0237 21.35 16.8337C21.35 16.7337 21.34 16.6337 21.3 16.5437C21.27 16.4537 21.21 16.3637 21.14 16.2937C21.07 16.2237 20.99 16.1637 20.9 16.1337C20.81 16.0937 20.71 16.0737 20.61 16.0737H8.31C8.15 16.0837 8 16.0337 7.88 15.9337C7.7 15.7837 7.45 15.4237 7.28 14.5938L7.05 13.3637C7.05 13.3537 7.05 13.3537 7.05 13.3438C7.05 13.3338 7.06 13.3337 7.07 13.3337L21.5 10.9137C21.57 10.9037 21.63 10.8737 21.67 10.8237C21.72 10.7737 21.74 10.7137 21.75 10.6437L22.58 4.66375C22.6 4.62375 22.6 4.57375 22.59 4.53375Z" stroke="#FDC994" stroke-miterlimit="10"/>
</svg>
