<svg width="20" height="20" viewBox="0 0 20 20" fill="none" xmlns="http://www.w3.org/2000/svg">
<path d="M8.2099 0.67899L8.56345 0.325437L8.2099 0.67899C8.3245 0.793596 8.38889 0.949035 8.38889 1.11111V7.77778C8.38889 7.93985 8.3245 8.09529 8.2099 8.2099C8.09529 8.3245 7.93985 8.38889 7.77778 8.38889H1.11111C0.949035 8.38889 0.793596 8.3245 0.67899 8.2099L0.325437 8.56345L0.67899 8.2099C0.564385 8.09529 0.5 7.93986 0.5 7.77778V1.11111C0.5 0.949034 0.564385 0.793596 0.67899 0.67899C0.793596 0.564385 0.949034 0.5 1.11111 0.5H7.77778C7.93986 0.5 8.09529 0.564385 8.2099 0.67899ZM18.8889 8.38889H12.2222C12.0601 8.38889 11.9047 8.3245 11.7901 8.2099C11.6755 8.09529 11.6111 7.93985 11.6111 7.77778V1.11111C11.6111 0.949035 11.6755 0.793596 11.7901 0.67899L11.4365 0.325437L11.7901 0.67899C11.9047 0.564385 12.0601 0.5 12.2222 0.5H18.8889C19.051 0.5 19.2064 0.564385 19.321 0.67899C19.4356 0.793595 19.5 0.949033 19.5 1.11111V7.77778C19.5 7.93986 19.4356 8.09529 19.321 8.2099C19.2064 8.3245 19.051 8.38889 18.8889 8.38889ZM7.77778 19.5H1.11111C0.949033 19.5 0.793595 19.4356 0.67899 19.321C0.564385 19.2064 0.5 19.051 0.5 18.8889V12.2222C0.5 12.0601 0.564385 11.9047 0.67899 11.7901L0.325437 11.4365L0.67899 11.7901C0.793596 11.6755 0.949035 11.6111 1.11111 11.6111H7.77778C7.93985 11.6111 8.09529 11.6755 8.2099 11.7901C8.3245 11.9047 8.38889 12.0601 8.38889 12.2222V18.8889C8.38889 19.051 8.3245 19.2064 8.2099 19.321C8.09529 19.4356 7.93986 19.5 7.77778 19.5ZM19.5 15.5556C19.5 17.7305 17.7305 19.5 15.5556 19.5C13.3806 19.5 11.6111 17.7305 11.6111 15.5556C11.6111 13.3806 13.3806 11.6111 15.5556 11.6111C17.7305 11.6111 19.5 13.3806 19.5 15.5556Z" stroke="#FDC994"/>
</svg>
