<svg xmlns="http://www.w3.org/2000/svg" width="94.001" height="94.001" viewBox="0 0 94.001 94.001">
  <g id="loginlogo_1_" data-name="loginlogo (1)" transform="translate(0 0)">
    <rect id="Rectangle_2695" data-name="Rectangle 2695" width="66.468" height="66.468" transform="translate(47 0) rotate(45)" fill="#fff"/>
    <path id="Path_7076" data-name="Path 7076" d="M63.784,59.512v.564c0,.282,0,.282-.282.564l-.282.282h-.564L39.795,62.617H38.1a7.515,7.515,0,0,1-3.387-.847,5.539,5.539,0,0,1-2.54-2.54L13.265,25.645a6.159,6.159,0,0,0-1.129-1.411,4.011,4.011,0,0,0-1.693-.564l-9.314-.847c-.282,0-.564-.282-.847-.564A1.037,1.037,0,0,1,0,21.411v-.564c0-.282.282-.282.282-.565.282,0,.282-.282.564-.282h.564l9.031.847a5.015,5.015,0,0,1,2.822,1.129,8.589,8.589,0,0,1,2.258,2.258l18.91,33.586a3.4,3.4,0,0,0,1.411,1.411,5.233,5.233,0,0,0,1.976.564H39.23L62.091,58.1h.564c.282,0,.282,0,.564.282l.282.282C63.5,58.948,63.784,59.23,63.784,59.512Z" fill="#00bbd4"/>
    <path id="Path_7077" data-name="Path 7077" d="M57.01,46.812c-.847.282-1.411,1.129-2.258.847a.985.985,0,0,1,.282-.564c-.282-.564.282-.564.564-.847.282-.847.847-1.129,1.411-1.976h.282c1.129-1.129,2.54-1.976,3.669-3.1.282,0,.565-.565,1.129-.565A16.3,16.3,0,0,1,57.01,46.812Z" fill="#00bbd4"/>
    <path id="Path_7078" data-name="Path 7078" d="M71.969,33.547a2.439,2.439,0,0,0-.847-1.693,4.957,4.957,0,0,0-1.411-1.129,4.08,4.08,0,0,0-1.976-.564H26.247a1.037,1.037,0,0,0-.847.282c-.282,0-.282.282-.564.565,0,.282-.282.564-.282.847a1.037,1.037,0,0,0,.282.847L36.407,55a2.2,2.2,0,0,0,1.129,1.129,1.866,1.866,0,0,0,1.693.282l22.861-.564A2.562,2.562,0,0,0,64.066,55,7.484,7.484,0,0,0,65.477,53.3l6.209-17.5A7.944,7.944,0,0,0,71.969,33.547ZM64.631,47.659c-1.129,1.129-1.976,2.54-3.387,3.1,0,.282-.282.282-.282.564-.282,0-.282.282-.565.282,0,.282-.564.282-.564.564-.564,0-.847,0-.847.564-.847,0-1.129.564-1.976.282a.276.276,0,0,0-.282.282c-.282,0-.564,0-.564-.282-.282,0-1.129,0-1.129-.282-.282.282-.564-.282-.847-.282-.847-.847-1.411-1.129-1.693-2.54-.282-.282-.282-.564-.564-1.129-.564-.847-1.693-.565-2.822-.565-.564,0-1.411-.564-2.258-.564a24.078,24.078,0,0,0,4.516,0c0-.564.282-1.129.282-1.693a1.7,1.7,0,0,1,.282-1.129c0-.282.282-.282.564-.282a6.164,6.164,0,0,0,.847-1.411,12.281,12.281,0,0,1,1.693-1.976,16.976,16.976,0,0,1,3.669-2.54c.282-.282.564-.282.847-.564.564,0,.847-.565,1.411-.282.847,0,1.129.847,1.976,1.129H63.5a1.781,1.781,0,0,1,.564,2.54c-.282.282-.564.564-.564.847a9.4,9.4,0,0,1-.847,1.693.276.276,0,0,1-.282.282c-.282.564-.847.847-1.129,1.411-1.693.565-2.822,1.976-4.516,2.822-.564.282-.847.565-1.411.847-.282,0-.565.282-.847,0-.847,1.693,2.54,1.693,3.387,1.693.847-.282,1.411-.564,2.258-.847a51.315,51.315,0,0,0,6.491-4.234C65.759,46.248,65.2,47.094,64.631,47.659Z" fill="#00bbd4"/>
    <path id="Path_7079" data-name="Path 7079" d="M39.513,73.342a3.681,3.681,0,1,0-3.387-3.669A3.7,3.7,0,0,0,39.513,73.342Z" fill="#00bbd4"/>
    <path id="Path_7080" data-name="Path 7080" d="M62.373,67.7a3.82,3.82,0,0,0-2.822-4.233c-1.693-.282-3.387,1.411-3.669,3.387A3.82,3.82,0,0,0,58.7,71.084C60.68,71.366,62.091,69.955,62.373,67.7Z" fill="#00bbd4"/>
  </g>
</svg>
