<svg width="20" height="20" viewBox="0 0 20 20" fill="none" xmlns="http://www.w3.org/2000/svg">
<path d="M9.99613 4.08158C8.87768 4.08158 8.08821 4.33533 7.64933 4.83612C7.18259 5.36828 7.24543 6.05374 7.24833 6.08266C7.25222 6.12135 7.25416 6.16021 7.25416 6.19909V7.89548C7.25416 8.1742 7.15428 8.4437 6.97262 8.6551C6.94665 8.68532 6.93175 8.72231 6.93175 8.75658V10.0451C6.93175 10.1067 6.96444 10.1464 6.99188 10.1689C7.1842 10.3264 7.32111 10.5414 7.38261 10.7822C7.62775 11.7425 8.15209 12.4849 8.30696 12.6895C8.46018 12.892 8.54308 13.139 8.54308 13.3929V14.4448C8.54308 15.1676 8.14889 15.8322 7.51332 16.1797L5.22499 17.4279C5.32284 17.4909 5.42286 17.5526 5.52409 17.6124C5.56051 17.6339 5.60006 17.6564 5.64207 17.6803C5.84583 17.7963 6.04708 17.9014 6.2403 17.9926L6.24567 17.995C6.26148 18.002 6.27726 18.009 6.29291 18.0164C6.96931 18.3306 7.68665 18.5576 8.42486 18.6908L8.42764 18.6913C8.44694 18.6948 8.46626 18.6983 8.48585 18.7018C8.73056 18.744 8.95978 18.7745 9.18643 18.795C9.19651 18.7959 9.2066 18.7966 9.21671 18.7973C9.23788 18.7988 9.25911 18.8004 9.28043 18.8023C9.54303 18.8239 9.77715 18.8344 9.99613 18.8344C10.2094 18.8344 10.4423 18.8241 10.7081 18.8027C10.7298 18.8009 10.7514 18.7994 10.7731 18.7978C10.783 18.7972 10.7929 18.7965 10.8028 18.7957C11.0302 18.7749 11.2637 18.7441 11.4968 18.7041L11.503 18.7031C11.5164 18.7007 11.5299 18.6983 11.5433 18.6958C11.5486 18.6947 11.5538 18.6938 11.5591 18.6928C12.285 18.5626 12.9924 18.341 13.6616 18.034C13.6767 18.027 13.6919 18.0202 13.707 18.0135C13.7155 18.0097 13.724 18.006 13.7324 18.002C13.7335 18.0015 13.7346 18.001 13.7357 18.0004C13.9278 17.9102 14.1235 17.8089 14.3167 17.7001C14.3665 17.672 14.4127 17.6454 14.4576 17.6189C14.5394 17.5707 14.6169 17.5237 14.691 17.4774L12.2196 16.2418C11.546 15.905 11.1275 15.228 11.1275 14.475V13.4001C11.1275 13.1331 11.2192 12.8741 11.3873 12.6665C11.4431 12.5976 11.5034 12.5177 11.5665 12.429C11.9006 11.957 12.1698 11.4291 12.3667 10.86C12.4689 10.5645 12.6856 10.3225 12.968 10.1883C12.9958 10.1751 13.0605 10.1347 13.0605 10.0455V8.75694C13.0605 8.72262 13.0459 8.68591 13.0203 8.65622C12.8382 8.44472 12.7381 8.17491 12.7381 7.89584V6.19945C12.7381 6.16071 12.74 6.12201 12.7439 6.08347C12.7468 6.05452 12.8094 5.36836 12.3424 4.83593C11.904 4.33538 11.1146 4.08158 9.99613 4.08158ZM9.99613 0.00817871C15.5077 0.00817871 19.992 4.49252 19.992 10.0041C19.992 12.9301 18.7282 15.5661 16.7181 17.3952L16.7279 17.4036L16.3953 17.6813C16.3622 17.7093 16.3259 17.7329 16.2921 17.7601C16.1398 17.8841 15.9831 18.0026 15.8236 18.1175C15.757 18.1654 15.6912 18.2138 15.624 18.2596C15.4372 18.3875 15.2449 18.5078 15.0493 18.6231C14.9963 18.6543 14.9432 18.6849 14.8898 18.715C14.6749 18.8361 14.4558 18.9498 14.2315 19.0552C14.2039 19.0683 14.1759 19.0803 14.1482 19.093C13.3987 19.4369 12.5998 19.6903 11.7649 19.84C11.7423 19.8444 11.7194 19.8484 11.6969 19.8524C11.4363 19.8971 11.1724 19.9323 10.9052 19.9567C10.8714 19.9596 10.8376 19.9614 10.8038 19.9643C10.537 19.9858 10.2684 19.9999 9.99613 19.9999C9.72134 19.9999 9.45017 19.9858 9.18192 19.9636C9.14884 19.9607 9.11613 19.9589 9.08342 19.956C8.81407 19.9316 8.548 19.8953 8.28483 19.8498C8.2623 19.8458 8.24013 19.8418 8.21796 19.8378C7.3703 19.6848 6.55973 19.4256 5.8004 19.0727C5.78332 19.0647 5.76587 19.0574 5.74879 19.0494C5.51579 18.9397 5.28825 18.8201 5.06543 18.6932C5.02072 18.6678 4.97602 18.6423 4.93167 18.6162C4.72812 18.4958 4.52893 18.369 4.33482 18.2352C4.27485 18.1938 4.21596 18.1513 4.15708 18.1087C3.97534 17.9775 3.79686 17.8419 3.62457 17.6991C3.60349 17.6816 3.58059 17.6671 3.55951 17.6493L3.23528 17.3759L3.24473 17.3676C1.2521 15.5392 0.000244141 12.9152 0.000244141 10.0041C0.000244141 4.49252 4.48458 0.00817871 9.99613 0.00817871ZM16.1431 16.9332C18.0564 15.2343 19.265 12.7582 19.265 10.0041C19.265 4.89308 15.1071 0.735152 9.99613 0.735152C4.88514 0.735152 0.727217 4.89308 0.727217 10.0041C0.727217 12.7382 1.918 15.199 3.80777 16.8972C3.89864 16.8322 3.98951 16.774 4.08111 16.7242L6.9552 15.1565C7.21582 15.014 7.37757 14.7414 7.37757 14.4448V13.3929C7.15367 13.097 6.54773 12.2239 6.25331 11.0705C5.9458 10.8186 5.76624 10.4453 5.76624 10.0451V8.75658C5.76624 8.44144 5.88219 8.13574 6.08865 7.89548V6.19909C6.06975 6.0108 6.00286 4.94578 6.77309 4.0676C7.443 3.30319 8.52728 2.91607 9.99613 2.91607C11.465 2.91607 12.5493 3.30319 13.2192 4.06796C13.9894 4.94615 13.9225 6.01043 13.9036 6.19945V7.89584C14.1104 8.1361 14.226 8.4418 14.226 8.75694V10.0455C14.226 10.5635 13.9287 11.0222 13.4682 11.241C13.2352 11.9146 12.9157 12.5405 12.5173 13.1032C12.4395 13.2126 12.3642 13.3122 12.293 13.4001V14.475C12.293 14.7836 12.4646 15.0613 12.7408 15.1994L15.8185 16.738C15.9286 16.7933 16.0362 16.8594 16.1431 16.9332Z" fill="#FDC994"/>
</svg>
